<?xml version="1.0" encoding="UTF-8" standalone="no"?>
<!-- Created with Inkscape (http://www.inkscape.org/) -->

<svg
   xmlns:dc="http://purl.org/dc/elements/1.1/"
   xmlns:cc="http://creativecommons.org/ns#"
   xmlns:rdf="http://www.w3.org/1999/02/22-rdf-syntax-ns#"
   xmlns:svg="http://www.w3.org/2000/svg"
   xmlns="http://www.w3.org/2000/svg"
   xmlns:sodipodi="http://sodipodi.sourceforge.net/DTD/sodipodi-0.dtd"
   xmlns:inkscape="http://www.inkscape.org/namespaces/inkscape"
   width="300"
   height="300"
   id="svg2"
   version="1.1"
   inkscape:version="0.48.4 r9939"
   sodipodi:docname="pfd_mask.svg">
  <defs
     id="defs4" />
  <sodipodi:namedview
     id="base"
     pagecolor="#ffffff"
     bordercolor="#666666"
     borderopacity="1.0"
     inkscape:pageopacity="0.0"
     inkscape:pageshadow="2"
     inkscape:zoom="0.49999998"
     inkscape:cx="326.84715"
     inkscape:cy="119.00196"
     inkscape:document-units="px"
     inkscape:current-layer="layer1"
     showgrid="false"
     inkscape:window-width="1920"
     inkscape:window-height="1005"
     inkscape:window-x="-9"
     inkscape:window-y="-9"
     inkscape:window-maximized="1"
     inkscape:snap-object-midpoints="false"
     inkscape:snap-smooth-nodes="false"
     inkscape:object-paths="false"
     inkscape:snap-midpoints="true"
     inkscape:snap-intersection-paths="true"
     inkscape:object-nodes="true"
     inkscape:snap-center="false"
     inkscape:snap-nodes="true"
     showguides="true"
     inkscape:guide-bbox="true" />
  <metadata
     id="metadata7">
    <rdf:RDF>
      <cc:Work
         rdf:about="">
        <dc:format>image/svg+xml</dc:format>
        <dc:type
           rdf:resource="http://purl.org/dc/dcmitype/StillImage" />
        <dc:title></dc:title>
      </cc:Work>
    </rdf:RDF>
  </metadata>
  <g
     inkscape:label="Layer 1"
     inkscape:groupmode="layer"
     id="layer1"
     transform="translate(0,-752.36218)">
    <path
       inkscape:connector-curvature="0"
       style="fill:#000000;fill-opacity:1;stroke:none"
       d="m 0,752.36217 0,300.00003 300,0 0,-300.00003 -300,0 z m 25,37.5 36,0 0,175.00001 -36,0 0,-175.00001 z m 206,0 40,0 0,175.00001 -40,0 0,-175.00001 z m -141,12.5 120,0 c 8.31,0 15,6.69 15,15.00001 l 0,120 c 0,8.31 -6.69,15 -15,15 l -10,0 0,4.8125 c 0,2.77 -2.23,5 -5,5 l -90,0 c -2.77,0 -5,-2.23 -5,-5 l 0,-4.8125 -10,0 c -8.31,0 -15,-6.69 -15,-15 l 0,-120 c 0,-8.31001 6.69,-15.00001 15,-15.00001 z m 185,0 10,0 9,33.56251 0,82.875 -9,33.5625 -10,0 0,-150.00001 z M 150,992.36218 c 37.82078,0 70.98414,20.00312 89.46875,50.00002 l -178.90625,0 C 79.0471,1012.3653 112.17921,992.36218 150,992.36218 z"
       id="rect11308-0-8-0" />
  </g>
</svg>
